
        <svg xmlns="http://www.w3.org/2000/svg" xmlns:xlink="http://www.w3.org/1999/xlink" version="1.1" width="3155.068689244199" 
        height="791.6457597195056" viewBox="0 0 3155.068689244199 791.6457597195056">
			
			<g transform="scale(7.753434462209949) translate(10, 10)">
				<defs id="SvgjsDefs10127"></defs><g id="SvgjsG10128" featureKey="KAJiUP-0" transform="matrix(0.7491365406411159,0,0,0.7491365406411159,2.771416173369089,63.38916210272815)" fill="#eeeeee"><path d="M11.6 15.02 c0 1.8 -0.78 3.42 -2.22 4.4 c-0.72 0.48 -1.54 0.72 -2.46 0.72 c-1.62 0 -2.92 -0.74 -3.86 -2.24 l0 2.1 l-1.42 0 l0 -15.16 l1.46 0 l0 7.36 c1 -1.54 2.28 -2.32 3.82 -2.32 c1.38 0 2.62 0.62 3.42 1.6 c0.78 0.96 1.26 2.24 1.26 3.54 z M6.64 18.88 c1.06 0 1.9 -0.38 2.54 -1.1 c0.62 -0.74 0.94 -1.64 0.94 -2.72 c0 -1.4 -0.54 -2.62 -1.62 -3.34 c-0.52 -0.36 -1.16 -0.54 -1.86 -0.54 c-2.02 -0.04 -3.62 1.84 -3.56 3.82 c0 1.04 0.32 1.96 1 2.72 c0.68 0.78 1.52 1.16 2.56 1.16 z M24.868000000000002 15.48 l-8.04 0 c0.06 0.98 0.42 1.78 1.1 2.42 c0.68 0.66 1.5 0.98 2.46 0.98 c1.5 0 2.62 -0.74 3.08 -2.12 l1.28 0.4 c-0.28 0.94 -0.82 1.68 -1.62 2.22 c-0.8 0.52 -1.7 0.8 -2.72 0.8 c-0.94 0 -1.8 -0.24 -2.58 -0.7 s-1.38 -1.08 -1.8 -1.88 c-0.44 -0.78 -0.66 -1.64 -0.66 -2.58 c0 -0.9 0.2 -1.74 0.62 -2.52 c0.4 -0.8 0.98 -1.42 1.74 -1.9 c0.74 -0.48 1.58 -0.72 2.48 -0.72 c0.98 0 1.84 0.22 2.56 0.68 c0.72 0.44 1.26 1.06 1.6 1.82 c0.36 0.76 0.52 1.62 0.52 2.62 c0 0.1 0 0.26 -0.02 0.48 z M16.848 14.24 l6.58 0 c-0.1 -0.92 -0.44 -1.66 -1 -2.24 c-0.56 -0.56 -1.3 -0.84 -2.22 -0.84 c-0.86 0 -1.58 0.3 -2.22 0.9 c-0.64 0.62 -1.02 1.34 -1.14 2.18 z M35.876000000000005 17.18 c0 0.88 -0.34 1.6 -1.02 2.14 c-0.68 0.56 -1.52 0.84 -2.5 0.84 c-1.6 0 -2.64 -0.66 -3.18 -1.44 c-0.4 -0.54 -0.54 -1.02 -0.6 -1.52 l1.32 -0.34 c0.16 0.92 0.86 2.04 2.44 2.04 c0.56 0 1.04 -0.16 1.46 -0.46 c0.4 -0.28 0.6 -0.68 0.6 -1.18 c0 -0.4 -0.16 -0.72 -0.48 -0.96 c-0.32 -0.26 -0.7 -0.42 -1.14 -0.52 l-1.52 -0.34 c-1.64 -0.36 -2.48 -1.24 -2.48 -2.6 c0 -1.02 0.52 -1.86 1.24 -2.3 c0.7 -0.44 1.46 -0.66 2.14 -0.66 c1.5 0.02 2.46 0.6 2.98 1.32 c0.36 0.5 0.52 0.92 0.6 1.34 l-1.32 0.38 c-0.1 -0.4 -0.26 -0.72 -0.58 -1.12 c-0.34 -0.4 -0.94 -0.64 -1.68 -0.64 c-0.54 0 -0.98 0.14 -1.36 0.46 c-0.38 0.3 -0.56 0.68 -0.56 1.12 c0 0.78 0.56 1.14 1.44 1.36 l1.6 0.36 c1.3 0.3 2.6 1.12 2.6 2.72 z M50.344 15.02 c0 1.8 -0.78 3.42 -2.22 4.4 c-0.72 0.48 -1.54 0.72 -2.46 0.72 c-1.62 0 -2.9 -0.72 -3.82 -2.18 l0 6.94 l-1.46 0 l0 -14.84 l1.42 0 l0 2.16 c1.02 -1.56 2.3 -2.34 3.86 -2.34 c1.38 0 2.62 0.62 3.42 1.6 c0.78 0.96 1.26 2.24 1.26 3.54 z M45.384 18.88 c1.06 0 1.9 -0.38 2.54 -1.1 c0.62 -0.74 0.94 -1.64 0.94 -2.72 c0 -1.4 -0.54 -2.62 -1.62 -3.34 c-0.52 -0.36 -1.16 -0.54 -1.86 -0.54 c-2.02 -0.04 -3.62 1.84 -3.56 3.82 c0 1.04 0.32 1.96 1 2.72 c0.68 0.78 1.52 1.16 2.56 1.16 z M59.212 20.18 c-0.92 0 -1.8 -0.24 -2.58 -0.68 c-0.78 -0.46 -1.4 -1.08 -1.84 -1.86 c-0.46 -0.78 -0.68 -1.64 -0.68 -2.58 c0 -1.46 0.48 -2.7 1.48 -3.68 c0.98 -1 2.2 -1.5 3.66 -1.5 c2.82 -0.06 5.18 2.32 5.14 5.12 c0.04 2.88 -2.32 5.24 -5.18 5.18 z M59.252 18.88 c1.04 0 1.92 -0.38 2.62 -1.12 c0.68 -0.74 1.02 -1.64 1.02 -2.7 s-0.34 -1.98 -1.04 -2.76 c-0.7 -0.76 -1.56 -1.14 -2.64 -1.14 c-1.04 0 -1.92 0.38 -2.6 1.12 s-1.02 1.64 -1.02 2.72 c-0.04 2.06 1.54 3.92 3.66 3.88 z M70.38 15.02 l-0.06 0 l0 4.98 l-1.46 0 l0 -15.18 l1.46 0 l0 9.28 l4.72 -4.04 l2.06 0 l-5.24 4.46 l5.48 5.48 l-2.02 0 z M89.708 15.48 l-8.04 0 c0.06 0.98 0.42 1.78 1.1 2.42 c0.68 0.66 1.5 0.98 2.46 0.98 c1.5 0 2.62 -0.74 3.08 -2.12 l1.28 0.4 c-0.28 0.94 -0.82 1.68 -1.62 2.22 c-0.8 0.52 -1.7 0.8 -2.72 0.8 c-0.94 0 -1.8 -0.24 -2.58 -0.7 s-1.38 -1.08 -1.8 -1.88 c-0.44 -0.78 -0.66 -1.64 -0.66 -2.58 c0 -0.9 0.2 -1.74 0.62 -2.52 c0.4 -0.8 0.98 -1.42 1.74 -1.9 c0.74 -0.48 1.58 -0.72 2.48 -0.72 c0.98 0 1.84 0.22 2.56 0.68 c0.72 0.44 1.26 1.06 1.6 1.82 c0.36 0.76 0.52 1.62 0.52 2.62 c0 0.1 0 0.26 -0.02 0.48 z M81.688 14.24 l6.58 0 c-0.1 -0.92 -0.44 -1.66 -1 -2.24 c-0.56 -0.56 -1.3 -0.84 -2.22 -0.84 c-0.86 0 -1.58 0.3 -2.22 0.9 c-0.64 0.62 -1.02 1.34 -1.14 2.18 z M101.28399999999999 10.06 l1.42 0 l0 1.96 c0.48 -0.98 1.28 -1.64 2.04 -1.92 c0.38 -0.14 0.78 -0.2 1.18 -0.2 c0.22 0 0.38 0 0.48 0.04 l0 1.54 c-0.16 -0.04 -0.36 -0.04 -0.56 -0.04 c-2.36 0 -3.1 1.94 -3.1 3.7 l0 4.86 l-1.46 0 l0 -9.94 z M119.07199999999999 15.48 l-8.04 0 c0.06 0.98 0.42 1.78 1.1 2.42 c0.68 0.66 1.5 0.98 2.46 0.98 c1.5 0 2.62 -0.74 3.08 -2.12 l1.28 0.4 c-0.28 0.94 -0.82 1.68 -1.62 2.22 c-0.8 0.52 -1.7 0.8 -2.72 0.8 c-0.94 0 -1.8 -0.24 -2.58 -0.7 s-1.38 -1.08 -1.8 -1.88 c-0.44 -0.78 -0.66 -1.64 -0.66 -2.58 c0 -0.9 0.2 -1.74 0.62 -2.52 c0.4 -0.8 0.98 -1.42 1.74 -1.9 c0.74 -0.48 1.58 -0.72 2.48 -0.72 c0.98 0 1.84 0.22 2.56 0.68 c0.72 0.44 1.26 1.06 1.6 1.82 c0.36 0.76 0.52 1.62 0.52 2.62 c0 0.1 0 0.26 -0.02 0.48 z M111.05199999999999 14.24 l6.58 0 c-0.1 -0.92 -0.44 -1.66 -1 -2.24 c-0.56 -0.56 -1.3 -0.84 -2.22 -0.84 c-0.86 0 -1.58 0.3 -2.22 0.9 c-0.64 0.62 -1.02 1.34 -1.14 2.18 z M128.07999999999998 20 l-1.54 0 l-4.22 -9.94 l1.6 0 l3.4 8.34 l3.46 -8.34 l1.54 0 z M145.10799999999998 15.48 l-8.04 0 c0.06 0.98 0.42 1.78 1.1 2.42 c0.68 0.66 1.5 0.98 2.46 0.98 c1.5 0 2.62 -0.74 3.08 -2.12 l1.28 0.4 c-0.28 0.94 -0.82 1.68 -1.62 2.22 c-0.8 0.52 -1.7 0.8 -2.72 0.8 c-0.94 0 -1.8 -0.24 -2.58 -0.7 s-1.38 -1.08 -1.8 -1.88 c-0.44 -0.78 -0.66 -1.64 -0.66 -2.58 c0 -0.9 0.2 -1.74 0.62 -2.52 c0.4 -0.8 0.98 -1.42 1.74 -1.9 c0.74 -0.48 1.58 -0.72 2.48 -0.72 c0.98 0 1.84 0.22 2.56 0.68 c0.72 0.44 1.26 1.06 1.6 1.82 c0.36 0.76 0.52 1.62 0.52 2.62 c0 0.1 0 0.26 -0.02 0.48 z M137.088 14.24 l6.58 0 c-0.1 -0.92 -0.44 -1.66 -1 -2.24 c-0.56 -0.56 -1.3 -0.84 -2.22 -0.84 c-0.86 0 -1.58 0.3 -2.22 0.9 c-0.64 0.62 -1.02 1.34 -1.14 2.18 z M158.176 20 l-1.46 0 l0 -5.78 c0 -0.92 -0.22 -1.64 -0.7 -2.2 c-0.46 -0.54 -1.14 -0.82 -2.04 -0.82 c-0.86 0 -1.58 0.3 -2.14 0.9 c-0.54 0.6 -0.82 1.34 -0.82 2.24 l0 5.66 l-1.46 0 l0 -9.94 l1.42 0 l0 1.82 c0.8 -1.34 1.94 -2 3.44 -2 c1.18 0 2.1 0.36 2.78 1.08 c0.64 0.74 0.98 1.7 0.98 2.9 l0 6.14 z M163.144 10.06 l1.44 0 l0 5.78 c0 0.92 0.24 1.66 0.72 2.2 c0.46 0.56 1.14 0.82 2.04 0.82 c0.86 0 1.56 -0.3 2.12 -0.9 s0.84 -1.34 0.84 -2.24 l0 -5.66 l1.44 0 l0 9.94 l-1.42 0 l0 -1.82 c-0.8 1.34 -1.92 2.02 -3.42 2.02 c-1.18 0 -2.1 -0.38 -2.78 -1.1 c-0.66 -0.74 -0.98 -1.7 -0.98 -2.9 l0 -6.14 z M185.73199999999997 15.48 l-8.04 0 c0.06 0.98 0.42 1.78 1.1 2.42 c0.68 0.66 1.5 0.98 2.46 0.98 c1.5 0 2.62 -0.74 3.08 -2.12 l1.28 0.4 c-0.28 0.94 -0.82 1.68 -1.62 2.22 c-0.8 0.52 -1.7 0.8 -2.72 0.8 c-0.94 0 -1.8 -0.24 -2.58 -0.7 s-1.38 -1.08 -1.8 -1.88 c-0.44 -0.78 -0.66 -1.64 -0.66 -2.58 c0 -0.9 0.2 -1.74 0.62 -2.52 c0.4 -0.8 0.98 -1.42 1.74 -1.9 c0.74 -0.48 1.58 -0.72 2.48 -0.72 c0.98 0 1.84 0.22 2.56 0.68 c0.72 0.44 1.26 1.06 1.6 1.82 c0.36 0.76 0.52 1.62 0.52 2.62 c0 0.1 0 0.26 -0.02 0.48 z M177.712 14.24 l6.58 0 c-0.1 -0.92 -0.44 -1.66 -1 -2.24 c-0.56 -0.56 -1.3 -0.84 -2.22 -0.84 c-0.86 0 -1.58 0.3 -2.22 0.9 c-0.64 0.62 -1.02 1.34 -1.14 2.18 z M205.108 19.86 l0 -2.08 c-0.9 1.52 -2.18 2.26 -3.84 2.26 c-0.92 0 -1.74 -0.24 -2.46 -0.7 s-1.26 -1.08 -1.64 -1.84 c-0.38 -0.78 -0.56 -1.6 -0.56 -2.52 c0 -0.88 0.18 -1.7 0.56 -2.48 c0.38 -0.76 0.94 -1.4 1.66 -1.88 c0.72 -0.5 1.54 -0.74 2.44 -0.74 c0.92 0 1.74 0.26 2.38 0.7 c0.62 0.44 1.04 0.92 1.48 1.56 l0 -2.08 l1.44 0 l0 9.7 c0 1.7 -0.48 3 -1.4 3.88 c-0.94 0.88 -2.2 1.34 -3.78 1.34 c-1.24 0 -2.3 -0.34 -3.16 -0.98 c-0.86 -0.66 -1.4 -1.46 -1.58 -2.44 l1.32 -0.44 c0.24 1.02 1.16 2.58 3.4 2.58 c1.06 0 1.92 -0.28 2.62 -0.88 c0.7 -0.58 1.12 -1.62 1.12 -2.96 z M201.568 18.76 c1.02 0 1.86 -0.36 2.54 -1.12 c0.68 -0.74 1.02 -1.64 1.02 -2.68 c0.04 -1.94 -1.56 -3.82 -3.56 -3.78 c-1.08 0 -1.92 0.36 -2.54 1.08 c-0.64 0.72 -0.94 1.64 -0.94 2.74 c-0.04 2.04 1.34 3.78 3.48 3.76 z M220.55599999999998 15.48 l-8.04 0 c0.06 0.98 0.42 1.78 1.1 2.42 c0.68 0.66 1.5 0.98 2.46 0.98 c1.5 0 2.62 -0.74 3.08 -2.12 l1.28 0.4 c-0.28 0.94 -0.82 1.68 -1.62 2.22 c-0.8 0.52 -1.7 0.8 -2.72 0.8 c-0.94 0 -1.8 -0.24 -2.58 -0.7 s-1.38 -1.08 -1.8 -1.88 c-0.44 -0.78 -0.66 -1.64 -0.66 -2.58 c0 -0.9 0.2 -1.74 0.62 -2.52 c0.4 -0.8 0.98 -1.42 1.74 -1.9 c0.74 -0.48 1.58 -0.72 2.48 -0.72 c0.98 0 1.84 0.22 2.56 0.68 c0.72 0.44 1.26 1.06 1.6 1.82 c0.36 0.76 0.52 1.62 0.52 2.62 c0 0.1 0 0.26 -0.02 0.48 z M212.536 14.24 l6.58 0 c-0.1 -0.92 -0.44 -1.66 -1 -2.24 c-0.56 -0.56 -1.3 -0.84 -2.22 -0.84 c-0.86 0 -1.58 0.3 -2.22 0.9 c-0.64 0.62 -1.02 1.34 -1.14 2.18 z M233.624 20 l-1.46 0 l0 -5.78 c0 -0.92 -0.22 -1.64 -0.7 -2.2 c-0.46 -0.54 -1.14 -0.82 -2.04 -0.82 c-0.86 0 -1.58 0.3 -2.14 0.9 c-0.54 0.6 -0.82 1.34 -0.82 2.24 l0 5.66 l-1.46 0 l0 -9.94 l1.42 0 l0 1.82 c0.8 -1.34 1.94 -2 3.44 -2 c1.18 0 2.1 0.36 2.78 1.08 c0.64 0.74 0.98 1.7 0.98 2.9 l0 6.14 z M247.492 15.48 l-8.04 0 c0.06 0.98 0.42 1.78 1.1 2.42 c0.68 0.66 1.5 0.98 2.46 0.98 c1.5 0 2.62 -0.74 3.08 -2.12 l1.28 0.4 c-0.28 0.94 -0.82 1.68 -1.62 2.22 c-0.8 0.52 -1.7 0.8 -2.72 0.8 c-0.94 0 -1.8 -0.24 -2.58 -0.7 s-1.38 -1.08 -1.8 -1.88 c-0.44 -0.78 -0.66 -1.64 -0.66 -2.58 c0 -0.9 0.2 -1.74 0.62 -2.52 c0.4 -0.8 0.98 -1.42 1.74 -1.9 c0.74 -0.48 1.58 -0.72 2.48 -0.72 c0.98 0 1.84 0.22 2.56 0.68 c0.72 0.44 1.26 1.06 1.6 1.82 c0.36 0.76 0.52 1.62 0.52 2.62 c0 0.1 0 0.26 -0.02 0.48 z M239.472 14.24 l6.58 0 c-0.1 -0.92 -0.44 -1.66 -1 -2.24 c-0.56 -0.56 -1.3 -0.84 -2.22 -0.84 c-0.86 0 -1.58 0.3 -2.22 0.9 c-0.64 0.62 -1.02 1.34 -1.14 2.18 z M251.94 10.06 l1.42 0 l0 1.96 c0.48 -0.98 1.28 -1.64 2.04 -1.92 c0.38 -0.14 0.78 -0.2 1.18 -0.2 c0.22 0 0.38 0 0.48 0.04 l0 1.54 c-0.16 -0.04 -0.36 -0.04 -0.56 -0.04 c-2.36 0 -3.1 1.94 -3.1 3.7 l0 4.86 l-1.46 0 l0 -9.94 z M264.188 14.26 l2.76 0 l0 -0.66 c0 -1.6 -0.88 -2.42 -2.54 -2.42 c-0.8 0 -1.48 0.26 -1.88 0.66 s-0.64 0.86 -0.72 1.36 l-1.4 -0.3 c0.02 -0.5 0.5 -1.48 1.4 -2.2 c0.6 -0.46 1.56 -0.82 2.64 -0.82 c1.82 0 3.02 0.68 3.62 2.06 c0.2 0.46 0.3 1 0.3 1.64 l0 2.8 c0 1.66 0.06 2.88 0.16 3.62 l-1.44 0 c-0.08 -0.44 -0.14 -1.02 -0.14 -1.74 l0 0 c-0.84 1.28 -1.94 1.92 -3.36 1.92 c-0.98 0 -1.8 -0.28 -2.4 -0.84 c-0.62 -0.54 -0.94 -1.24 -0.94 -2.1 l0 -0.1 c0 -2.16 2.16 -2.88 3.94 -2.88 z M266.948 15.8 l0 -0.34 l-2.78 0 c-0.58 0 -1.12 0.1 -1.62 0.34 c-0.5 0.22 -0.84 0.7 -0.84 1.32 c0 0.56 0.2 0.98 0.62 1.3 c0.4 0.32 0.9 0.48 1.52 0.48 c0.88 0 1.62 -0.3 2.22 -0.88 c0.58 -0.56 0.88 -1.32 0.88 -2.22 z M276.936 20.08 c-2.16 0 -2.82 -1.2 -2.82 -2.66 l0 -6.08 l-1.84 0 l0 -1.28 l1.84 0 l0 -2.86 l1.44 0 l0 2.86 l2.52 0 l0 1.28 l-2.52 0 l0 6.06 c0 0.92 0.54 1.4 1.62 1.4 c0.34 0 0.64 -0.04 0.9 -0.08 l0 1.2 c-0.32 0.1 -0.7 0.16 -1.14 0.16 z M282.424 7.279999999999999 c-0.2 -0.22 -0.32 -0.48 -0.32 -0.78 s0.12 -0.56 0.32 -0.78 c0.2 -0.2 0.48 -0.32 0.78 -0.32 s0.56 0.12 0.76 0.32 c0.22 0.22 0.32 0.48 0.32 0.78 s-0.1 0.56 -0.32 0.78 c-0.2 0.2 -0.46 0.32 -0.76 0.32 s-0.58 -0.12 -0.78 -0.32 z M282.46399999999994 20 l0 -9.94 l1.46 0 l0 9.94 l-1.46 0 z M297.75199999999995 20 l-1.46 0 l0 -5.78 c0 -0.92 -0.22 -1.64 -0.7 -2.2 c-0.46 -0.54 -1.14 -0.82 -2.04 -0.82 c-0.86 0 -1.58 0.3 -2.14 0.9 c-0.54 0.6 -0.82 1.34 -0.82 2.24 l0 5.66 l-1.46 0 l0 -9.94 l1.42 0 l0 1.82 c0.8 -1.34 1.94 -2 3.44 -2 c1.18 0 2.1 0.36 2.78 1.08 c0.64 0.74 0.98 1.7 0.98 2.9 l0 6.14 z M310.64 19.86 l0 -2.08 c-0.9 1.52 -2.18 2.26 -3.84 2.26 c-0.92 0 -1.74 -0.24 -2.46 -0.7 s-1.26 -1.08 -1.64 -1.84 c-0.38 -0.78 -0.56 -1.6 -0.56 -2.52 c0 -0.88 0.18 -1.7 0.56 -2.48 c0.38 -0.76 0.94 -1.4 1.66 -1.88 c0.72 -0.5 1.54 -0.74 2.44 -0.74 c0.92 0 1.74 0.26 2.38 0.7 c0.62 0.44 1.04 0.92 1.48 1.56 l0 -2.08 l1.44 0 l0 9.7 c0 1.7 -0.48 3 -1.4 3.88 c-0.94 0.88 -2.2 1.34 -3.78 1.34 c-1.24 0 -2.3 -0.34 -3.16 -0.98 c-0.86 -0.66 -1.4 -1.46 -1.58 -2.44 l1.32 -0.44 c0.24 1.02 1.16 2.58 3.4 2.58 c1.06 0 1.92 -0.28 2.62 -0.88 c0.7 -0.58 1.12 -1.62 1.12 -2.96 z M307.09999999999997 18.76 c1.02 0 1.86 -0.36 2.54 -1.12 c0.68 -0.74 1.02 -1.64 1.02 -2.68 c0.04 -1.94 -1.56 -3.82 -3.56 -3.78 c-1.08 0 -1.92 0.36 -2.54 1.08 c-0.64 0.72 -0.94 1.64 -0.94 2.74 c-0.04 2.04 1.34 3.78 3.48 3.76 z M327.676 14.26 l2.76 0 l0 -0.66 c0 -1.6 -0.88 -2.42 -2.54 -2.42 c-0.8 0 -1.48 0.26 -1.88 0.66 s-0.64 0.86 -0.72 1.36 l-1.4 -0.3 c0.02 -0.5 0.5 -1.48 1.4 -2.2 c0.6 -0.46 1.56 -0.82 2.64 -0.82 c1.82 0 3.02 0.68 3.62 2.06 c0.2 0.46 0.3 1 0.3 1.64 l0 2.8 c0 1.66 0.06 2.88 0.16 3.62 l-1.44 0 c-0.08 -0.44 -0.14 -1.02 -0.14 -1.74 l0 0 c-0.84 1.28 -1.94 1.92 -3.36 1.92 c-0.98 0 -1.8 -0.28 -2.4 -0.84 c-0.62 -0.54 -0.94 -1.24 -0.94 -2.1 l0 -0.1 c0 -2.16 2.16 -2.88 3.94 -2.88 z M330.436 15.8 l0 -0.34 l-2.78 0 c-0.58 0 -1.12 0.1 -1.62 0.34 c-0.5 0.22 -0.84 0.7 -0.84 1.32 c0 0.56 0.2 0.98 0.62 1.3 c0.4 0.32 0.9 0.48 1.52 0.48 c0.88 0 1.62 -0.3 2.22 -0.88 c0.58 -0.56 0.88 -1.32 0.88 -2.22 z M345.56399999999996 20 l-1.46 0 l0 -5.78 c0 -0.92 -0.22 -1.64 -0.7 -2.2 c-0.46 -0.54 -1.14 -0.82 -2.04 -0.82 c-0.86 0 -1.58 0.3 -2.14 0.9 c-0.54 0.6 -0.82 1.34 -0.82 2.24 l0 5.66 l-1.46 0 l0 -9.94 l1.42 0 l0 1.82 c0.8 -1.34 1.94 -2 3.44 -2 c1.18 0 2.1 0.36 2.78 1.08 c0.64 0.74 0.98 1.7 0.98 2.9 l0 6.14 z M349.932 15.02 c0 -1.3 0.48 -2.58 1.28 -3.54 c0.8 -0.98 2.02 -1.6 3.38 -1.6 c0.92 0 1.74 0.26 2.36 0.7 s1.06 0.92 1.5 1.56 l0 -7.3 l1.44 0 l0 15.16 l-1.42 0 l0 -2.12 c-0.92 1.52 -2.22 2.26 -3.88 2.26 c-1.38 0 -2.6 -0.6 -3.4 -1.54 c-0.78 -0.94 -1.26 -2.22 -1.26 -3.58 z M354.892 18.88 c2.04 0.02 3.62 -1.88 3.58 -3.88 c0 -1.3 -0.64 -2.54 -1.74 -3.28 c-0.56 -0.36 -1.18 -0.54 -1.84 -0.54 c-1.06 0 -1.9 0.36 -2.52 1.1 c-0.64 0.74 -0.96 1.66 -0.96 2.78 c0 1.38 0.56 2.56 1.62 3.28 c0.54 0.36 1.16 0.54 1.86 0.54 z M382.188 15.02 c0 1.8 -0.78 3.42 -2.22 4.4 c-0.72 0.48 -1.54 0.72 -2.46 0.72 c-1.62 0 -2.92 -0.74 -3.86 -2.24 l0 2.1 l-1.42 0 l0 -15.16 l1.46 0 l0 7.36 c1 -1.54 2.28 -2.32 3.82 -2.32 c1.38 0 2.62 0.62 3.42 1.6 c0.78 0.96 1.26 2.24 1.26 3.54 z M377.22799999999995 18.88 c1.06 0 1.9 -0.38 2.54 -1.1 c0.62 -0.74 0.94 -1.64 0.94 -2.72 c0 -1.4 -0.54 -2.62 -1.62 -3.34 c-0.52 -0.36 -1.16 -0.54 -1.86 -0.54 c-2.02 -0.04 -3.62 1.84 -3.56 3.82 c0 1.04 0.32 1.96 1 2.72 c0.68 0.78 1.52 1.16 2.56 1.16 z M396.63599999999997 15.02 c0 1.8 -0.78 3.42 -2.22 4.4 c-0.72 0.48 -1.54 0.72 -2.46 0.72 c-1.62 0 -2.9 -0.72 -3.82 -2.18 l0 6.94 l-1.46 0 l0 -14.84 l1.42 0 l0 2.16 c1.02 -1.56 2.3 -2.34 3.86 -2.34 c1.38 0 2.62 0.62 3.42 1.6 c0.78 0.96 1.26 2.24 1.26 3.54 z M391.67599999999993 18.88 c1.06 0 1.9 -0.38 2.54 -1.1 c0.62 -0.74 0.94 -1.64 0.94 -2.72 c0 -1.4 -0.54 -2.62 -1.62 -3.34 c-0.52 -0.36 -1.16 -0.54 -1.86 -0.54 c-2.02 -0.04 -3.62 1.84 -3.56 3.82 c0 1.04 0.32 1.96 1 2.72 c0.68 0.78 1.52 1.16 2.56 1.16 z M405.5039999999999 20.18 c-0.92 0 -1.8 -0.24 -2.58 -0.68 c-0.78 -0.46 -1.4 -1.08 -1.84 -1.86 c-0.46 -0.78 -0.68 -1.64 -0.68 -2.58 c0 -1.46 0.48 -2.7 1.48 -3.68 c0.98 -1 2.2 -1.5 3.66 -1.5 c2.82 -0.06 5.18 2.32 5.14 5.12 c0.04 2.88 -2.32 5.24 -5.18 5.18 z M405.5439999999999 18.88 c1.04 0 1.92 -0.38 2.62 -1.12 c0.68 -0.74 1.02 -1.64 1.02 -2.7 s-0.34 -1.98 -1.04 -2.76 c-0.7 -0.76 -1.56 -1.14 -2.64 -1.14 c-1.04 0 -1.92 0.38 -2.6 1.12 s-1.02 1.64 -1.02 2.72 c-0.04 2.06 1.54 3.92 3.66 3.88 z M428.8399999999999 17.18 c0 0.88 -0.34 1.6 -1.02 2.14 c-0.68 0.56 -1.52 0.84 -2.5 0.84 c-1.6 0 -2.64 -0.66 -3.18 -1.44 c-0.4 -0.54 -0.54 -1.02 -0.6 -1.52 l1.32 -0.34 c0.16 0.92 0.86 2.04 2.44 2.04 c0.56 0 1.04 -0.16 1.46 -0.46 c0.4 -0.28 0.6 -0.68 0.6 -1.18 c0 -0.4 -0.16 -0.72 -0.48 -0.96 c-0.32 -0.26 -0.7 -0.42 -1.14 -0.52 l-1.52 -0.34 c-1.64 -0.36 -2.48 -1.24 -2.48 -2.6 c0 -1.02 0.52 -1.86 1.24 -2.3 c0.7 -0.44 1.46 -0.66 2.14 -0.66 c1.5 0.02 2.46 0.6 2.98 1.32 c0.36 0.5 0.52 0.92 0.6 1.34 l-1.32 0.38 c-0.1 -0.4 -0.26 -0.72 -0.58 -1.12 c-0.34 -0.4 -0.94 -0.64 -1.68 -0.64 c-0.54 0 -0.98 0.14 -1.36 0.46 c-0.38 0.3 -0.56 0.68 -0.56 1.12 c0 0.78 0.56 1.14 1.44 1.36 l1.6 0.36 c1.3 0.3 2.6 1.12 2.6 2.72 z M442.12799999999993 15.48 l-8.04 0 c0.06 0.98 0.42 1.78 1.1 2.42 c0.68 0.66 1.5 0.98 2.46 0.98 c1.5 0 2.62 -0.74 3.08 -2.12 l1.28 0.4 c-0.28 0.94 -0.82 1.68 -1.62 2.22 c-0.8 0.52 -1.7 0.8 -2.72 0.8 c-0.94 0 -1.8 -0.24 -2.58 -0.7 s-1.38 -1.08 -1.8 -1.88 c-0.44 -0.78 -0.66 -1.64 -0.66 -2.58 c0 -0.9 0.2 -1.74 0.62 -2.52 c0.4 -0.8 0.98 -1.42 1.74 -1.9 c0.74 -0.48 1.58 -0.72 2.48 -0.72 c0.98 0 1.84 0.22 2.56 0.68 c0.72 0.44 1.26 1.06 1.6 1.82 c0.36 0.76 0.52 1.62 0.52 2.62 c0 0.1 0 0.26 -0.02 0.48 z M434.1079999999999 14.24 l6.58 0 c-0.1 -0.92 -0.44 -1.66 -1 -2.24 c-0.56 -0.56 -1.3 -0.84 -2.22 -0.84 c-0.86 0 -1.58 0.3 -2.22 0.9 c-0.64 0.62 -1.02 1.34 -1.14 2.18 z M446.5759999999999 10.06 l1.42 0 l0 1.96 c0.48 -0.98 1.28 -1.64 2.04 -1.92 c0.38 -0.14 0.78 -0.2 1.18 -0.2 c0.22 0 0.38 0 0.48 0.04 l0 1.54 c-0.16 -0.04 -0.36 -0.04 -0.56 -0.04 c-2.36 0 -3.1 1.94 -3.1 3.7 l0 4.86 l-1.46 0 l0 -9.94 z M460.1439999999999 20 l-1.54 0 l-4.22 -9.94 l1.6 0 l3.4 8.34 l3.46 -8.34 l1.54 0 z M468.3519999999999 7.279999999999999 c-0.2 -0.22 -0.32 -0.48 -0.32 -0.78 s0.12 -0.56 0.32 -0.78 c0.2 -0.2 0.48 -0.32 0.78 -0.32 s0.56 0.12 0.76 0.32 c0.22 0.22 0.32 0.48 0.32 0.78 s-0.1 0.56 -0.32 0.78 c-0.2 0.2 -0.46 0.32 -0.76 0.32 s-0.58 -0.12 -0.78 -0.32 z M468.3919999999999 20 l0 -9.94 l1.46 0 l0 9.94 l-1.46 0 z M475.8199999999999 14.98 c0 1.4 0.58 2.62 1.68 3.34 c0.56 0.38 1.2 0.56 1.92 0.56 c0.84 0 1.58 -0.28 2.04 -0.62 c0.22 -0.16 0.42 -0.36 0.62 -0.6 c0.36 -0.48 0.52 -0.8 0.66 -1.16 l1.34 0.44 c-0.22 0.78 -0.76 1.54 -1.52 2.16 c-0.76 0.64 -1.92 1.08 -3.16 1.08 c-2.84 0.04 -5.1 -2.18 -5.06 -5.12 c0 -0.98 0.24 -1.86 0.7 -2.66 s1.08 -1.42 1.86 -1.86 s1.62 -0.66 2.56 -0.66 c1.12 0 2.12 0.32 2.96 0.92 c0.86 0.64 1.4 1.38 1.6 2.26 l-1.32 0.44 c-0.22 -0.8 -1.24 -2.32 -3.28 -2.32 c-1.04 0 -1.9 0.36 -2.58 1.1 s-1.02 1.64 -1.02 2.7 z M497.2079999999999 15.48 l-8.04 0 c0.06 0.98 0.42 1.78 1.1 2.42 c0.68 0.66 1.5 0.98 2.46 0.98 c1.5 0 2.62 -0.74 3.08 -2.12 l1.28 0.4 c-0.28 0.94 -0.82 1.68 -1.62 2.22 c-0.8 0.52 -1.7 0.8 -2.72 0.8 c-0.94 0 -1.8 -0.24 -2.58 -0.7 s-1.38 -1.08 -1.8 -1.88 c-0.44 -0.78 -0.66 -1.64 -0.66 -2.58 c0 -0.9 0.2 -1.74 0.62 -2.52 c0.4 -0.8 0.98 -1.42 1.74 -1.9 c0.74 -0.48 1.58 -0.72 2.48 -0.72 c0.98 0 1.84 0.22 2.56 0.68 c0.72 0.44 1.26 1.06 1.6 1.82 c0.36 0.76 0.52 1.62 0.52 2.62 c0 0.1 0 0.26 -0.02 0.48 z M489.1879999999999 14.24 l6.58 0 c-0.1 -0.92 -0.44 -1.66 -1 -2.24 c-0.56 -0.56 -1.3 -0.84 -2.22 -0.84 c-0.86 0 -1.58 0.3 -2.22 0.9 c-0.64 0.62 -1.02 1.34 -1.14 2.18 z M508.2159999999999 17.18 c0 0.88 -0.34 1.6 -1.02 2.14 c-0.68 0.56 -1.52 0.84 -2.5 0.84 c-1.6 0 -2.64 -0.66 -3.18 -1.44 c-0.4 -0.54 -0.54 -1.02 -0.6 -1.52 l1.32 -0.34 c0.16 0.92 0.86 2.04 2.44 2.04 c0.56 0 1.04 -0.16 1.46 -0.46 c0.4 -0.28 0.6 -0.68 0.6 -1.18 c0 -0.4 -0.16 -0.72 -0.48 -0.96 c-0.32 -0.26 -0.7 -0.42 -1.14 -0.52 l-1.52 -0.34 c-1.64 -0.36 -2.48 -1.24 -2.48 -2.6 c0 -1.02 0.52 -1.86 1.24 -2.3 c0.7 -0.44 1.46 -0.66 2.14 -0.66 c1.5 0.02 2.46 0.6 2.98 1.32 c0.36 0.5 0.52 0.92 0.6 1.34 l-1.32 0.38 c-0.1 -0.4 -0.26 -0.72 -0.58 -1.12 c-0.34 -0.4 -0.94 -0.64 -1.68 -0.64 c-0.54 0 -0.98 0.14 -1.36 0.46 c-0.38 0.3 -0.56 0.68 -0.56 1.12 c0 0.78 0.56 1.14 1.44 1.36 l1.6 0.36 c1.3 0.3 2.6 1.12 2.6 2.72 z"></path></g><g id="SvgjsG10129" featureKey="nameLeftFeature-0" transform="matrix(1.4972829135539092,0,0,1.4972829135539092,-1.7069030355027497,-4.469189031236091)" fill="#eeeeee"><path d="M4.14 10.58 l0 2.92 l2.8 0 c0.92 0 1.46 -0.54 1.46 -1.46 s-0.54 -1.46 -1.46 -1.46 l-2.8 0 z M8.68 15.48 c0.56 0.76 1.12 1.52 1.7 2.26 c0.56 0.74 1.12 1.5 1.68 2.26 l-3.66 0 c-0.72 -0.96 -1.42 -1.92 -2.12 -2.88 c-0.7 -0.94 -1.42 -1.9 -2.14 -2.86 l0 5.74 l-3 0 l0 -12.24 l5.8 0 c2.28 0 4.22 1.74 4.22 4.04 c0 1.62 -1 3.04 -2.48 3.68 z M14.914 7.76 l9.1 0 l0 2.78 l-6.1 0 l0 1.96 l4.9 0 l0 2.78 l-4.9 0 l0 1.94 l6.1 0 l0 2.78 l-9.1 0 l0 -12.24 z M35.768 7.76 l3.28 0 l-4.9 12.24 l-3 0 l-4.9 -12.24 l3.26 0 l3.14 8.82 z M50.94199999999999 13.719999999999999 c0.88 0.62 1.4 1.54 1.4 2.62 c0 2.08 -1.92 3.66 -3.92 3.66 l-6.5 0 l0 -12.24 l6.1 0 c1.6 0 2.92 0.86 3.62 2.28 c0.2 0.46 0.3 0.92 0.3 1.4 c0 0.9 -0.36 1.64 -1 2.28 z M44.922 10.54 l0 1.96 l3.1 0 c0.52 0 0.92 -0.5 0.92 -1 c0 -0.52 -0.38 -0.96 -0.92 -0.96 l-3.1 0 z M44.922 15.280000000000001 l0 1.94 l3.5 0 c0.54 0 0.92 -0.44 0.92 -0.96 c0 -0.26 -0.1 -0.5 -0.28 -0.7 c-0.18 -0.18 -0.4 -0.28 -0.64 -0.28 l-3.5 0 z M61.51599999999999 17.32 c2.18 0 3.3 -1.4 3.3 -3.44 c0 -2.16 -1.2 -3.44 -3.3 -3.44 c-2.2 0 -3.3 1.4 -3.3 3.44 c0 2.12 1.22 3.44 3.3 3.44 z M61.51599999999999 20.1 c-3.76 0 -6.3 -2.56 -6.3 -6.22 c0 -3.78 2.66 -6.22 6.3 -6.22 c3.78 0 6.3 2.54 6.3 6.22 c0 3.8 -2.64 6.22 -6.3 6.22 z M77.14999999999999 17.32 c2.18 0 3.3 -1.4 3.3 -3.44 c0 -2.16 -1.2 -3.44 -3.3 -3.44 c-2.2 0 -3.3 1.4 -3.3 3.44 c0 2.12 1.22 3.44 3.3 3.44 z M77.14999999999999 20.1 c-3.76 0 -6.3 -2.56 -6.3 -6.22 c0 -3.78 2.66 -6.22 6.3 -6.22 c3.78 0 6.3 2.54 6.3 6.22 c0 3.8 -2.64 6.22 -6.3 6.22 z M86.304 19.7 l0 -2.82 c0.24 0.06 0.54 0.12 0.88 0.16 c0.34 0.06 0.7 0.1 1.08 0.12 s0.76 0.04 1.16 0.06 s0.78 0.04 1.12 0.04 c0.94 0 1.6 -0.06 2 -0.16 c0.38 -0.1 0.58 -0.28 0.58 -0.56 c0 -0.24 -0.18 -0.42 -0.36 -0.56 c-0.66 -0.44 -1.44 -0.62 -2.22 -0.8 c-2.2 -0.44 -4.22 -1.32 -4.22 -3.84 c0 -2.98 2.82 -3.68 5.24 -3.68 c1.34 0 2.7 0.14 4 0.46 l0 2.82 c-0.2 -0.06 -0.46 -0.1 -0.78 -0.16 c-0.34 -0.04 -0.68 -0.08 -1.06 -0.12 c-0.78 -0.08 -1.52 -0.12 -2.3 -0.12 c-0.44 0 -1.36 0 -1.78 0.16 c-0.28 0.1 -0.46 0.22 -0.46 0.54 c0 0.16 0.04 0.3 0.12 0.42 c0.08 0.14 0.22 0.24 0.4 0.34 c0.54 0.3 1.24 0.48 1.84 0.62 c0.5 0.12 1 0.26 1.52 0.4 c1.76 0.48 2.92 1.46 2.92 3.34 c0 3.1 -3.08 3.76 -5.56 3.76 c-1.36 0 -2.78 -0.1 -4.12 -0.42 z M98.518 7.76 l10.2 0 l0 2.78 l-3.6 0 l0 9.46 l-3 0 l0 -9.46 l-3.6 0 l0 -2.78 z"></path></g><g id="SvgjsG10130" featureKey="inlineSymbolFeature-0" transform="matrix(0.35563175011995396,0,0,0.35563175011995396,179.22184124940023,-1.7906058075888696)" fill="#eeeeee"><g xmlns="http://www.w3.org/2000/svg"><path fill="#eeeeee" d="M45.769,36.666c2.911,0,5.618,0.78,8.038,2.042l4.334-4.336c-3.602-2.255-7.82-3.615-12.372-3.615   c-12.922,0-23.438,10.516-23.438,23.438c0,12.922,10.516,23.439,23.438,23.439c12.924,0,23.439-10.518,23.439-23.439   c0-4.516-1.346-8.701-3.568-12.283l-4.335,4.334c1.233,2.398,1.994,5.074,1.994,7.949c0,9.666-7.863,17.529-17.53,17.529   c-9.666,0-17.529-7.863-17.529-17.529C28.239,44.53,36.103,36.666,45.769,36.666z"></path><path fill="#eeeeee" d="M65.928,23.521l-0.611,7.017l-15.85,15.85c-1.124-0.536-2.368-0.859-3.698-0.859   c-4.786,0-8.666,3.88-8.666,8.667c0,4.787,3.88,8.668,8.666,8.668c4.787,0,8.667-3.881,8.667-8.668c0-1.295-0.303-2.508-0.81-3.611   l15.868-15.868l7.019-0.611L95,15.616l-11.596,1.012l1.011-11.593L65.928,23.521z"></path><path fill="#eeeeee" d="M77.574,36.385l-1.798,0.156c3.062,5.186,4.854,11.208,4.854,17.654c0,19.221-15.64,34.861-34.861,34.861   c-19.221,0-34.86-15.641-34.86-34.861c0-19.221,15.639-34.86,34.86-34.86c6.477,0,12.524,1.807,17.725,4.896l0.154-1.771   l3.134-3.135c-6.144-3.718-13.319-5.899-21.013-5.899C23.289,13.426,5,31.715,5,54.195c0,22.48,18.289,40.77,40.769,40.77   c22.48,0,40.77-18.289,40.77-40.77c0-7.656-2.159-14.801-5.847-20.929L77.574,36.385z"></path></g></g><g id="SvgjsG10131" featureKey="nameRightFeature-0" transform="matrix(1.2708077239845654,0,0,1.2708077239845654,223.22494649264056,-0.3198521750475578)" fill="#eeeeee"><path d="M12.232 5.76 c4.4 0 7.34 0.78 7.34 4.94 c0 3.3 -1.94 4.74 -6.74 4.74 l-0.38 0 l0 4.56 c-0.92 0.32 -3.86 0.32 -4.76 0 l0 -13.8 c1.88 -0.4 3.66 -0.44 4.54 -0.44 z M12.832 12.82 c1.3 0 1.64 -0.32 1.64 -1.74 c0 -1.4 -0.34 -1.74 -1.64 -1.74 l-0.38 0 l0 3.48 l0.38 0 z M32.444 6.199999999999999 l4 13.8 c-0.94 0.34 -4.08 0.34 -5.18 0 l-0.58 -2.9 l-3.36 0 l-0.58 2.9 c-1.08 0.32 -4.24 0.32 -5.14 0 l4.02 -13.8 c1.32 -0.36 5.48 -0.36 6.82 0 z M27.924 14.24 l2.2 0 l-0.96 -4.76 l-0.28 0 z M50.436 15.86 l1.42 4.14 c-1.24 0.36 -3.84 0.36 -5.1 0 l-1.58 -4.88 l-1.12 0 l0 4.88 c-0.92 0.32 -3.86 0.32 -4.76 0 l0 -13.8 c1.88 -0.4 3.66 -0.44 4.62 -0.44 c4.26 0 7.28 0.64 7.28 4.8 c0 1.7 -0.82 2.82 -2.72 3.44 l0 0.12 c0.82 0.16 1.62 0.68 1.96 1.74 z M44.436 12.5 c1.3 0 1.66 -0.24 1.66 -1.56 c0 -1.36 -0.36 -1.6 -1.66 -1.6 l-0.38 0 l0 3.16 l0.38 0 z M66.22800000000001 6.199999999999999 c0.24 0.66 0.24 2.98 0 3.62 l-3.58 0 l0 9.9 c-0.94 0.34 -3.86 0.34 -4.76 0 l0 -9.9 l-3.64 0 c-0.28 -0.64 -0.28 -2.96 0 -3.62 l11.98 0 z M78.86 6.199999999999999 c0.86 -0.32 3.58 -0.32 4.46 0 l0 13.8 c-1.64 0.34 -4.52 0.34 -6.18 0 l-1.88 -5.08 l-1.12 -3.84 l-0.18 0 l0 8.92 c-0.88 0.32 -3.6 0.32 -4.48 0 l0 -13.8 c1.66 -0.32 4.5 -0.32 6.16 0 l2 5.32 l1.04 3.6 l0.18 0 l0 -8.92 z M92.352 16.38 l5.26 0 c0.28 0.64 0.28 2.96 0 3.62 l-10.02 0 l0 -13.8 l10.02 0 c0.28 0.66 0.28 2.98 0 3.62 l-5.26 0 l0 1.78 l4.2 0 c0.28 0.46 0.28 2.16 0 2.6 l-4.2 0 l0 2.18 z M112.78399999999999 15.86 l1.42 4.14 c-1.24 0.36 -3.84 0.36 -5.1 0 l-1.58 -4.88 l-1.12 0 l0 4.88 c-0.92 0.32 -3.86 0.32 -4.76 0 l0 -13.8 c1.88 -0.4 3.66 -0.44 4.62 -0.44 c4.26 0 7.28 0.64 7.28 4.8 c0 1.7 -0.82 2.82 -2.72 3.44 l0 0.12 c0.82 0.16 1.62 0.68 1.96 1.74 z M106.78399999999999 12.5 c1.3 0 1.66 -0.24 1.66 -1.56 c0 -1.36 -0.36 -1.6 -1.66 -1.6 l-0.38 0 l0 3.16 l0.38 0 z M122.836 5.76 c2.04 0 5.04 0.38 5.4 0.5 c0.24 1.24 0.16 2.36 -0.36 3.5 c-1.18 -0.18 -3.36 -0.38 -4.7 -0.38 c-0.74 0 -1.12 0.08 -1.12 0.6 c0 0.54 0.3 0.56 0.98 0.86 l2.02 0.86 c2.46 1.06 3.76 1.96 3.76 4.64 c0 3.6 -2.38 4.12 -6.44 4.1 c-1.42 0 -2.36 0 -5.14 -0.44 c-0.24 -1.26 -0.14 -2.36 0.34 -3.5 c1.68 0.3 4.22 0.38 5.26 0.3 c0.46 -0.06 1 -0.1 1 -0.74 c0 -0.3 -0.18 -0.44 -0.82 -0.7 l-2.36 -0.96 c-2.4 -0.98 -3.62 -2.32 -3.62 -4.46 c0 -3.4 1.96 -4.18 5.8 -4.18 z"></path></g>
			</g>
		</svg>
	